<svg width="16" height="16" viewBox="0 0 16 16" fill="none" xmlns="http://www.w3.org/2000/svg">
<path fill-rule="evenodd" clip-rule="evenodd" d="M0 8C0 3.58172 3.58172 0 8 0C10.1217 0 12.1566 0.842855 13.6569 2.34315C15.1571 3.84344 16 5.87827 16 8C16 12.4183 12.4183 16 8 16C3.58172 16 0 12.4183 0 8ZM7.13333 8.51333C7.13333 8.99198 7.52135 9.38 8 9.38C8.47865 9.38 8.86667 8.99198 8.86667 8.51333V4.51333C8.86667 4.03469 8.47865 3.64667 8 3.64667C7.52135 3.64667 7.13333 4.03469 7.13333 4.51333V8.51333ZM8 14.6667C4.3181 14.6667 1.33333 11.6819 1.33333 8C1.33333 4.3181 4.3181 1.33333 8 1.33333C11.6819 1.33333 14.6667 4.3181 14.6667 8C14.6667 9.76811 13.9643 11.4638 12.714 12.714C11.4638 13.9643 9.76811 14.6667 8 14.6667ZM8.96667 11.3467C8.96667 11.899 8.51895 12.3467 7.96667 12.3467C7.41438 12.3467 6.96667 11.899 6.96667 11.3467C6.96667 10.7944 7.41438 10.3467 7.96667 10.3467C8.51895 10.3467 8.96667 10.7944 8.96667 11.3467Z" fill="white"/>
</svg>
