<svg width="22" height="22" viewBox="0 0 22 22" fill="none" xmlns="http://www.w3.org/2000/svg">
<path fill-rule="evenodd" clip-rule="evenodd" d="M9.22 0.333344C4.43353 0.333344 0.553329 4.21354 0.553329 9.00001C0.553329 13.7865 4.43353 17.6667 9.22 17.6667C14.0065 17.6667 17.8867 13.7865 17.8867 9.00001C17.8867 4.21354 14.0065 0.333344 9.22 0.333344ZM9.22 1.70001C12.1732 1.69731 14.8371 3.47419 15.9691 6.2018C17.1011 8.92941 16.4782 12.0704 14.3909 14.1595C12.3036 16.2487 9.16326 16.8745 6.43462 15.745C3.70597 14.6155 1.92666 11.9532 1.92666 9.00001C1.94488 4.9785 5.1985 1.7219 9.22 1.70001ZM16.7533 15.58L21.6667 20.5267C21.8346 20.6958 21.8995 20.9416 21.837 21.1716C21.7745 21.4016 21.5941 21.5807 21.3637 21.6416C21.1333 21.7025 20.8879 21.6358 20.72 21.4667L15.8067 16.52L16.7533 15.58Z" fill="black"/>
<mask id="mask0_801_356" style="mask-type:alpha" maskUnits="userSpaceOnUse" x="0" y="0" width="22" height="22">
<path fill-rule="evenodd" clip-rule="evenodd" d="M9.22 0.333344C4.43353 0.333344 0.553329 4.21354 0.553329 9.00001C0.553329 13.7865 4.43353 17.6667 9.22 17.6667C14.0065 17.6667 17.8867 13.7865 17.8867 9.00001C17.8867 4.21354 14.0065 0.333344 9.22 0.333344ZM9.22 1.70001C12.1732 1.69731 14.8371 3.47419 15.9691 6.2018C17.1011 8.92941 16.4782 12.0704 14.3909 14.1595C12.3036 16.2487 9.16326 16.8745 6.43462 15.745C3.70597 14.6155 1.92666 11.9532 1.92666 9.00001C1.94488 4.9785 5.1985 1.7219 9.22 1.70001ZM16.7533 15.58L21.6667 20.5267C21.8346 20.6958 21.8995 20.9416 21.837 21.1716C21.7745 21.4016 21.5941 21.5807 21.3637 21.6416C21.1333 21.7025 20.8879 21.6358 20.72 21.4667L15.8067 16.52L16.7533 15.58Z" fill="white"/>
</mask>
<g mask="url(#mask0_801_356)">
<rect x="-1" y="-1" width="24" height="24" fill="#0079B8"/>
</g>
</svg>
